<?xml version="1.0" standalone="no"?>
<!DOCTYPE svg PUBLIC "-//W3C//DTD SVG 20010904//EN"
 "http://www.w3.org/TR/2001/REC-SVG-20010904/DTD/svg10.dtd">
<svg version="1.0" xmlns="http://www.w3.org/2000/svg"
 width="770.000000pt" height="523.000000pt" viewBox="0 0 770.000000 523.000000"
 preserveAspectRatio="xMidYMid meet">

<g transform="translate(0.000000,523.000000) scale(0.100000,-0.100000)"
fill="#000000" stroke="none">
<path d="M0 2615 l0 -2615 3850 0 3850 0 0 2615 0 2615 -3850 0 -3850 0 0
-2615z m1680 2461 c226 -29 490 -110 771 -239 139 -63 227 -171 319 -392 61
-146 100 -406 107 -719 l6 -239 -244 4 c-134 2 -372 -2 -529 -10 -231 -10
-333 -11 -540 -1 -327 16 -986 -2 -1011 -27 -18 -18 41 -307 100 -488 107
-327 274 -580 466 -705 45 -30 65 -49 69 -68 17 -82 25 -351 16 -597 -4 -148
-9 -324 -10 -390 0 -66 -5 -210 -10 -320 -5 -110 -10 -253 -10 -318 0 -67 -4
-117 -9 -115 -12 4 -200 246 -338 434 -282 386 -492 729 -593 971 -22 52 -22
55 -16 530 11 809 28 1162 67 1367 144 763 534 1233 1097 1320 116 19 156 19
292 2z m1028 -1645 c221 -113 217 -403 -7 -504 -59 -27 -171 -29 -218 -4 -18
9 -38 17 -45 17 -8 0 -49 -39 -92 -86 l-79 -85 93 -87 c142 -132 130 -126 203
-113 102 17 197 -16 266 -94 115 -131 78 -331 -77 -418 -135 -76 -301 -30
-390 107 -24 37 -27 51 -28 140 l-1 99 -34 30 c-19 16 -68 63 -110 103 -42 41
-80 74 -84 74 -4 0 -93 -83 -198 -185 l-192 -184 -22 21 -22 21 -98 -74 c-54
-41 -106 -74 -116 -74 -9 0 -53 -36 -97 -80 -44 -44 -80 -75 -80 -68 0 6 34
44 75 84 42 40 74 78 71 84 -2 6 32 54 75 106 43 52 79 98 79 103 0 5 -7 17
-16 27 -15 17 -7 26 113 141 70 68 154 148 186 178 32 29 56 59 55 66 -2 7
-102 103 -223 215 -121 111 -257 238 -303 281 l-83 78 143 1 c79 0 151 2 160
4 12 2 91 -64 229 -192 115 -108 222 -205 236 -216 l26 -21 100 104 c95 99
100 107 98 143 -6 113 84 234 203 274 56 18 152 11 204 -16z m-648 -1876 c0
-131 -2 -155 -15 -155 -13 0 -15 24 -15 155 0 131 2 155 15 155 13 0 15 -24
15 -155z m488 -3 c2 -147 2 -152 -18 -152 -19 0 -20 6 -20 156 0 143 1 155 18
152 15 -3 17 -20 20 -156z m1882 137 c56 -32 84 -88 77 -155 -7 -64 -28 -97
-83 -124 -96 -47 -197 -3 -223 98 -37 138 105 251 229 181z m322 11 c20 -6 47
-19 60 -30 21 -17 21 -19 5 -25 -10 -4 -27 -1 -41 8 -50 33 -128 34 -160 1
-39 -38 -8 -62 97 -75 110 -14 152 -55 123 -123 -28 -68 -148 -86 -245 -37
-35 18 -40 25 -31 36 10 12 18 11 51 -5 86 -45 181 -32 195 26 11 43 -20 63
-109 73 -43 5 -88 16 -102 25 -46 30 -25 107 35 129 25 9 83 8 122 -3z m728
-145 c0 -146 -1 -155 -19 -155 -18 0 -19 9 -19 148 1 81 3 150 5 155 2 4 11 7
19 7 12 0 14 -27 14 -155z m1170 136 c54 -28 80 -74 80 -141 0 -67 -25 -112
-80 -142 -44 -24 -127 -19 -169 11 -90 64 -77 226 21 274 44 22 105 21 148 -2z
m-5217 -66 c-3 -41 -3 -75 0 -75 3 0 44 34 92 75 52 46 94 75 108 75 21 -1 20
-2 -8 -28 -17 -15 -43 -37 -59 -49 l-29 -23 37 -52 c20 -29 53 -74 72 -100 35
-47 35 -48 12 -48 -17 1 -37 21 -83 85 -32 47 -62 85 -65 85 -3 0 -20 -14 -38
-31 -30 -27 -34 -36 -34 -85 -1 -46 -3 -54 -19 -54 -18 0 -19 10 -19 150 0
142 1 150 19 150 18 0 19 -6 14 -75z m337 -60 l0 -135 100 0 c82 0 100 -3 100
-15 0 -12 -19 -15 -115 -15 l-115 0 0 150 c0 127 2 150 15 150 13 0 15 -22 15
-135z m505 23 c49 -59 93 -107 98 -107 4 -1 7 49 7 109 0 91 3 110 15 110 13
0 15 -23 15 -150 0 -82 -4 -150 -8 -150 -5 0 -51 49 -103 110 -52 60 -97 110
-101 110 -5 0 -8 -49 -8 -110 0 -91 -3 -110 -15 -110 -13 0 -15 23 -15 151 0
115 3 150 12 147 7 -3 53 -52 103 -110z m405 36 l0 -75 85 75 c53 47 94 76
108 76 18 0 12 -9 -36 -53 l-58 -52 62 -85 c34 -47 65 -89 70 -94 4 -5 39 57
78 138 52 109 75 146 88 146 14 0 37 -38 91 -145 39 -80 72 -147 72 -150 0 -3
-8 -5 -18 -5 -12 0 -25 14 -37 40 l-18 40 -88 0 -89 0 -20 -40 c-18 -35 -25
-40 -55 -40 -32 0 -40 7 -91 78 -32 42 -61 81 -65 86 -6 6 -23 -4 -44 -24 -31
-30 -35 -39 -35 -87 0 -46 -3 -53 -20 -53 -19 0 -20 7 -20 150 0 143 1 150 20
150 18 0 20 -7 20 -76z m830 -41 c19 -62 37 -113 40 -113 3 0 21 51 40 113 28
89 40 113 55 115 17 2 24 -12 49 -90 50 -160 44 -158 86 -28 27 83 43 116 55
119 12 2 16 -2 13 -10 -3 -8 -25 -76 -49 -152 -31 -99 -47 -137 -58 -135 -8 2
-30 49 -52 117 -21 63 -41 116 -43 119 -3 2 -22 -50 -43 -117 -27 -86 -42
-121 -52 -119 -12 3 -52 109 -107 281 -4 14 -1 18 12 15 14 -2 27 -32 54 -115z
m460 62 c0 -30 3 -55 8 -55 4 0 25 12 47 25 44 27 55 30 55 15 0 -6 -25 -26
-55 -45 l-55 -36 0 -59 0 -60 105 0 c87 0 105 -3 105 -15 0 -12 -20 -15 -120
-15 l-120 0 0 71 0 71 -45 -26 c-35 -21 -45 -23 -45 -12 0 8 20 27 45 42 l45
26 0 64 c0 50 3 64 15 64 12 0 15 -13 15 -55z m1155 -95 c66 -131 73 -150 55
-150 -13 0 -27 14 -40 40 l-20 40 -85 0 -85 0 -20 -32 c-11 -18 -21 -37 -23
-42 -1 -4 -10 -7 -18 -5 -22 6 119 299 143 299 13 0 39 -43 93 -150z m665 35
c0 -111 1 -117 26 -142 22 -22 32 -25 75 -21 77 8 82 17 82 157 0 110 2 121
19 121 16 0 18 -11 18 -124 0 -118 -1 -127 -24 -153 -23 -26 -29 -28 -101 -28
-72 0 -78 2 -101 28 -23 26 -24 35 -24 153 0 104 2 124 15 124 12 0 15 -19 15
-115z m555 90 c15 -14 25 -36 25 -53 0 -33 -34 -82 -56 -82 -20 0 -18 -5 21
-77 31 -57 33 -63 15 -63 -13 0 -30 20 -55 65 l-37 65 -64 0 -64 0 0 -65 c0
-51 -3 -65 -15 -65 -13 0 -15 23 -15 150 l0 150 110 0 c104 0 112 -1 135 -25z
m686 2 c43 -29 64 -70 64 -127 0 -54 -20 -96 -58 -124 -23 -17 -46 -22 -128
-24 l-99 -4 0 151 0 151 94 0 c80 0 98 -3 127 -23z m156 -34 l52 -58 56 58
c32 32 66 57 77 57 15 0 6 -15 -46 -72 l-66 -73 0 -77 c0 -71 -2 -78 -20 -78
-18 0 -20 7 -20 78 l0 78 -66 72 c-57 63 -63 72 -43 72 16 0 41 -19 76 -57z
m-4302 -401 l25 -37 -190 -3 c-104 -1 -190 -5 -190 -8 0 -4 327 -395 392 -469
5 -5 25 8 51 33 l43 42 20 -22 c49 -56 49 -53 4 -102 l-42 -45 73 -83 73 -83
-59 -3 -60 -3 -51 54 -51 54 -24 -18 c-172 -136 -393 -152 -522 -38 -58 50
-82 111 -81 199 2 108 53 185 172 261 37 24 69 44 71 46 2 1 -47 61 -108 132
-61 72 -111 132 -111 133 0 2 121 2 270 0 l270 -3 25 -37z m2100 -159 c-1
-207 3 -226 36 -187 8 9 79 73 159 142 80 70 178 155 218 189 l73 64 59 -2
c33 -1 60 -3 60 -4 0 -3 -297 -266 -317 -280 -15 -11 -13 -16 14 -51 44 -55
353 -485 353 -490 0 -2 -26 -4 -58 -4 l-57 0 -165 230 c-91 126 -167 229 -171
230 -3 0 -49 -37 -102 -81 l-97 -82 -1 -126 c-2 -182 3 -166 -51 -169 l-48 -3
0 416 0 416 48 -3 47 -3 0 -202z m-2992 185 c58 -17 122 -82 137 -138 23 -85
-4 -194 -62 -246 -61 -56 -76 -59 -330 -62 l-238 -4 0 -179 0 -179 -45 0 -45
0 0 410 0 410 271 0 c185 0 285 -4 312 -12z m1533 -239 c91 -139 169 -248 173
-243 5 5 81 118 170 252 l161 242 48 0 47 0 0 -410 0 -410 -47 0 -48 0 0 320
c0 176 -3 320 -7 320 -5 -1 -80 -109 -167 -240 -88 -132 -161 -240 -162 -240
-4 0 -298 438 -309 460 -5 11 -13 20 -17 20 -5 0 -8 -144 -8 -320 l0 -320 -50
0 -50 0 0 410 0 410 50 0 51 0 165 -251z m2346 -66 c3 -365 6 -375 81 -409 59
-27 254 -27 314 0 75 34 78 44 81 409 l3 317 50 0 50 0 -3 -332 c-3 -364 -4
-371 -66 -434 -57 -58 -102 -69 -272 -69 -139 0 -160 2 -203 22 -26 12 -61 37
-77 55 -55 59 -60 98 -60 445 l0 313 50 0 49 0 3 -317z m1387 307 c47 -13 93
-47 122 -88 31 -46 39 -153 15 -217 -22 -55 -92 -122 -140 -130 -20 -4 -36
-11 -36 -15 0 -4 31 -61 68 -126 38 -66 83 -145 101 -176 l32 -58 -54 0 -55 0
-103 180 -103 180 -163 0 -163 0 0 -180 0 -180 -50 0 -50 0 0 410 0 410 273 0
c149 0 287 -4 306 -10z"/>
<path d="M2516 3279 c-31 -24 -56 -69 -56 -99 0 -34 29 -79 63 -100 108 -66
230 48 172 160 -30 59 -127 80 -179 39z"/>
<path d="M2072 2798 c-17 -17 -15 -44 4 -62 20 -21 30 -20 54 4 24 24 25 34 4
54 -18 19 -45 21 -62 4z"/>
<path d="M2564 2410 c-11 -4 -33 -22 -47 -40 -57 -67 -23 -167 64 -190 51 -14
103 9 137 60 62 93 -47 214 -154 170z"/>
<path d="M4304 1670 c-11 -4 -33 -23 -48 -41 -25 -29 -28 -39 -24 -87 4 -42
11 -59 34 -83 39 -38 89 -47 138 -24 44 21 66 59 66 115 0 55 -22 94 -64 114
-37 17 -69 19 -102 6z"/>
<path d="M6510 1658 c-67 -45 -77 -143 -21 -199 99 -98 261 25 197 149 -22 43
-49 61 -97 68 -36 5 -50 1 -79 -18z"/>
<path d="M3042 1585 c-18 -36 -32 -68 -32 -70 0 -3 29 -5 65 -5 38 0 65 4 65
10 0 11 -58 130 -63 130 -1 0 -17 -29 -35 -65z"/>
<path d="M4997 1587 c-15 -34 -27 -65 -27 -69 0 -5 29 -8 65 -8 36 0 65 3 65
7 0 11 -64 133 -70 133 -3 0 -17 -29 -33 -63z"/>
<path d="M6130 1620 l0 -50 88 0 c95 0 112 7 112 50 0 43 -17 50 -112 50 l-88
0 0 -50z"/>
<path d="M6840 1550 l0 -120 68 0 c112 0 159 45 149 140 -4 33 -13 51 -36 72
-28 25 -38 28 -106 28 l-75 0 0 -120z"/>
<path d="M2520 899 c-74 -50 -109 -99 -117 -166 -24 -204 222 -273 429 -120
15 11 28 24 28 29 0 4 -46 60 -101 125 -56 65 -111 130 -122 145 -12 16 -28
28 -38 28 -9 0 -45 -19 -79 -41z"/>
<path d="M1502 1053 l3 -138 215 0 c234 0 260 5 296 60 41 63 7 181 -58 204
-19 7 -116 11 -245 11 l-214 0 3 -137z"/>
<path d="M6780 1049 l0 -141 218 4 c194 3 220 5 249 23 82 49 83 185 1 235
-30 18 -50 20 -250 20 l-218 0 0 -141z"/>
</g>
</svg>
