<?xml version="1.0" standalone="no"?>
<!DOCTYPE svg PUBLIC "-//W3C//DTD SVG 20010904//EN"
 "http://www.w3.org/TR/2001/REC-SVG-20010904/DTD/svg10.dtd">
<svg version="1.0" xmlns="http://www.w3.org/2000/svg"
 width="800.000000pt" height="800.000000pt" viewBox="0 0 800.000000 800.000000"
 preserveAspectRatio="xMidYMid meet">

<g transform="translate(0.000000,800.000000) scale(0.100000,-0.100000)"
fill="#000000" stroke="none">
<path d="M1461 6390 c-539 -140 -894 -633 -1016 -1413 -36 -231 -72 -1705 -43
-1772 89 -202 197 -395 363 -645 201 -303 578 -805 596 -794 5 3 9 60 9 127 0
67 5 223 10 347 20 428 29 971 19 1090 -20 236 -14 215 -72 251 -74 47 -200
172 -262 259 -60 86 -129 216 -178 340 -61 154 -134 443 -139 555 -3 47 -2 50
22 51 14 1 122 7 240 13 152 9 377 10 765 5 398 -5 570 -3 624 5 43 7 194 11
372 11 l299 0 0 133 c0 655 -141 1065 -415 1209 -92 48 -320 137 -465 181
-187 57 -259 69 -445 73 -163 4 -175 3 -284 -26z"/>
<path d="M2667 4776 c-107 -39 -187 -148 -187 -258 l0 -53 -101 -101 -102
-102 -231 215 -231 214 -159 -5 c-153 -5 -183 -9 -160 -24 6 -4 145 -131 308
-282 l298 -274 -89 -85 c-48 -47 -134 -130 -191 -185 l-102 -99 20 -22 21 -22
-81 -97 c-45 -53 -79 -100 -76 -105 3 -5 -31 -44 -75 -88 -45 -44 -80 -85 -78
-91 2 -6 42 24 89 67 47 44 89 77 93 74 5 -3 54 30 109 73 84 64 103 75 117
66 9 -7 22 -15 28 -18 8 -4 92 70 205 179 l192 185 117 -109 117 -110 -10 -37
c-31 -112 41 -251 159 -309 148 -72 338 5 398 159 22 59 17 156 -10 213 -58
121 -210 190 -338 154 l-38 -10 -115 107 -115 108 83 83 84 84 34 -18 c53 -27
191 -25 247 5 55 29 107 83 135 141 32 63 32 168 0 228 -53 101 -153 163 -262
162 -36 0 -82 -6 -103 -13z m154 -161 c35 -19 69 -70 69 -105 0 -39 -37 -90
-77 -107 -48 -20 -101 -5 -137 38 -46 55 -28 141 36 172 42 21 71 21 109 2z
m-503 -514 c6 -41 -48 -57 -68 -20 -15 27 5 51 39 47 19 -2 27 -10 29 -27z
m558 -395 c108 -108 -57 -266 -167 -160 -51 49 -50 116 3 166 25 23 39 28 80
28 44 0 54 -4 84 -34z"/>
<path d="M4477 3036 c-70 -26 -107 -80 -107 -158 0 -94 65 -158 159 -158 102
0 161 59 161 161 0 42 -6 65 -23 89 -42 63 -122 91 -190 66z m126 -57 c37 -29
54 -88 38 -138 -15 -53 -52 -81 -105 -81 -114 0 -166 128 -85 210 26 25 38 30
78 30 34 0 56 -6 74 -21z"/>
<path d="M4820 3040 c-62 -15 -98 -80 -67 -121 21 -27 53 -38 128 -45 50 -5
78 -13 91 -26 24 -24 23 -34 -7 -63 -33 -34 -104 -34 -169 -1 -44 22 -47 23
-56 6 -19 -35 60 -70 156 -70 62 0 68 2 100 34 22 22 34 44 34 61 0 61 -39 89
-140 100 -77 9 -100 19 -100 45 0 43 93 54 162 19 33 -17 42 -18 49 -7 15 22
10 29 -33 47 -56 24 -104 31 -148 21z"/>
<path d="M6708 3038 c-22 -6 -51 -25 -72 -48 -61 -68 -57 -166 9 -230 31 -30
42 -35 100 -38 53 -4 70 0 99 17 40 25 76 92 76 141 0 48 -36 116 -73 138 -41
25 -93 32 -139 20z m128 -72 c30 -30 34 -40 34 -86 0 -46 -4 -56 -34 -86 -29
-29 -41 -34 -81 -34 -40 0 -52 5 -81 34 -30 30 -34 40 -34 86 0 46 4 56 34 86
29 29 41 34 81 34 40 0 52 -5 81 -34z"/>
<path d="M1580 2880 c0 -153 1 -160 20 -160 18 0 20 7 20 59 0 55 2 60 34 85
19 14 37 26 39 26 3 0 32 -38 66 -85 43 -59 68 -85 83 -85 27 0 21 14 -52 114
-33 46 -60 87 -59 92 0 5 25 29 54 54 60 50 66 60 33 60 -14 0 -57 -30 -108
-75 l-85 -74 -3 75 c-3 66 -5 74 -22 74 -19 0 -20 -8 -20 -160z"/>
<path d="M1915 3028 c-3 -8 -4 -79 -3 -158 l3 -145 123 -3 c117 -2 122 -2 122
18 0 19 -6 20 -100 20 l-99 0 -3 137 c-3 122 -5 138 -21 141 -9 2 -19 -3 -22
-10z"/>
<path d="M2200 2880 c0 -157 1 -161 21 -158 19 3 20 9 20 158 0 149 -1 155
-20 158 -20 3 -21 -1 -21 -158z"/>
<path d="M2334 3027 c-2 -7 -3 -78 -2 -157 3 -137 4 -145 23 -145 19 0 20 7
20 113 0 61 1 112 2 112 0 0 45 -51 99 -112 54 -62 102 -113 108 -113 7 0 12
54 14 158 l3 158 -23 -3 c-22 -3 -23 -6 -23 -116 0 -61 0 -112 -1 -112 0 0
-45 52 -99 115 -54 63 -103 115 -107 115 -5 0 -11 -6 -14 -13z"/>
<path d="M2690 2880 c0 -153 1 -160 20 -160 19 0 20 7 20 160 0 153 -1 160
-20 160 -19 0 -20 -7 -20 -160z"/>
<path d="M2820 2880 c0 -153 1 -160 20 -160 18 0 20 7 20 59 0 55 2 60 34 85
19 14 37 26 40 26 2 0 32 -38 66 -85 57 -78 64 -85 96 -85 31 0 36 5 56 45
l22 45 82 0 83 0 23 -42 c15 -28 31 -44 46 -46 12 -2 22 -1 22 2 0 3 -35 76
-77 161 -57 114 -82 155 -96 155 -13 0 -36 -38 -87 -145 -38 -80 -71 -145 -74
-145 -2 0 -33 39 -67 87 l-63 87 57 51 c31 29 57 55 57 59 0 3 -10 6 -22 6
-14 -1 -58 -31 -108 -75 l-85 -74 -3 75 c-3 66 -5 74 -22 74 -19 0 -20 -8 -20
-160z m470 30 l30 -60 -60 0 c-33 0 -60 2 -60 5 0 7 54 115 57 115 1 0 16 -27
33 -60z"/>
<path d="M3620 3028 c0 -7 22 -78 48 -158 33 -101 52 -145 62 -145 10 0 27 34
51 105 19 58 38 112 40 120 3 8 24 -39 46 -105 26 -78 45 -120 54 -120 9 0 32
52 66 150 28 83 52 154 52 158 1 5 -9 7 -21 5 -19 -3 -28 -20 -59 -117 l-36
-114 -39 114 c-32 93 -43 114 -58 114 -16 0 -27 -21 -58 -115 -27 -81 -39
-109 -44 -95 -50 159 -71 210 -86 213 -10 2 -18 -2 -18 -10z"/>
<path d="M4118 2973 l-3 -68 -42 -23 c-28 -15 -43 -30 -43 -43 0 -24 8 -24 45
1 17 11 33 20 38 20 4 0 7 -31 7 -70 l0 -70 120 0 c113 0 120 1 120 20 0 19
-7 20 -100 20 l-100 0 0 63 0 62 50 28 c33 19 50 35 50 48 0 24 -2 24 -50 -6
-22 -14 -42 -25 -45 -25 -3 0 -5 25 -5 55 0 48 -3 55 -20 55 -17 0 -19 -8 -22
-67z"/>
<path d="M5125 2890 c-41 -82 -75 -154 -75 -160 0 -5 8 -10 18 -10 11 0 26 16
40 45 l22 45 83 0 83 0 22 -45 c15 -31 28 -45 42 -45 11 0 20 5 20 10 0 26
-151 310 -165 310 -9 0 -44 -58 -90 -150z m124 16 l29 -56 -64 0 -64 0 31 61
c16 34 32 59 35 57 2 -3 17 -30 33 -62z"/>
<path d="M5620 2880 c0 -153 1 -160 20 -160 19 0 20 7 20 160 0 153 -1 160
-20 160 -19 0 -20 -7 -20 -160z"/>
<path d="M5937 3034 c-13 -14 -8 -223 7 -259 19 -45 42 -55 126 -55 62 0 74 3
95 25 24 23 25 30 25 150 0 69 1 128 3 133 1 4 -8 8 -20 10 -23 3 -23 2 -23
-122 0 -148 -4 -156 -83 -156 -81 0 -81 1 -87 147 -4 105 -8 128 -20 131 -9 1
-19 0 -23 -4z"/>
<path d="M6274 3027 c-2 -7 -3 -78 -2 -157 3 -137 4 -145 23 -145 18 0 20 8
23 68 l3 67 57 0 57 0 38 -70 c27 -50 44 -70 58 -70 26 0 24 9 -15 79 -19 34
-31 61 -27 61 4 0 20 11 35 25 44 41 34 114 -21 143 -31 17 -222 16 -229 -1z
m214 -43 c26 -18 28 -46 6 -68 -11 -12 -36 -16 -95 -16 l-79 0 0 50 0 50 73 0
c49 0 80 -5 95 -16z"/>
<path d="M6982 2883 l3 -158 95 0 c103 0 137 12 175 63 28 38 32 127 7 172
-31 56 -88 80 -194 80 l-89 0 3 -157z m221 78 c28 -27 32 -39 32 -82 0 -44 -4
-54 -32 -79 -33 -29 -92 -45 -149 -38 l-29 3 -3 119 -3 119 77 -5 c69 -5 79
-8 107 -37z"/>
<path d="M7281 3013 c13 -16 45 -51 72 -80 l47 -52 0 -80 c0 -74 2 -81 20 -81
18 0 20 7 20 80 l0 79 63 68 c34 37 65 70 70 71 16 8 5 22 -17 22 -17 0 -41
-18 -79 -62 l-55 -61 -57 61 c-41 45 -64 62 -83 62 l-25 0 24 -27z"/>
<path d="M1580 2200 l0 -420 55 0 55 0 0 185 0 185 229 0 229 0 53 28 c77 40
113 100 117 198 6 120 -41 190 -151 228 -39 13 -96 16 -317 16 l-270 0 0 -420z
m550 306 c54 -19 83 -69 78 -133 -3 -33 -12 -61 -24 -74 -38 -43 -71 -49 -289
-49 l-205 0 0 135 0 135 203 -1 c135 0 214 -5 237 -13z"/>
<path d="M2501 2603 c8 -9 58 -68 112 -132 53 -63 97 -117 97 -120 0 -4 -23
-19 -52 -36 -74 -44 -136 -108 -165 -171 -22 -49 -25 -66 -21 -130 4 -59 11
-83 34 -121 82 -134 289 -173 461 -88 40 20 87 48 104 63 l32 26 46 -52 47
-53 66 3 66 3 -70 82 -70 83 36 42 c20 23 36 46 36 51 0 5 -14 27 -31 48 l-31
39 -42 -46 -41 -46 -199 233 -198 234 191 5 190 5 -29 48 -30 47 -276 0 c-257
0 -276 -1 -263 -17z m413 -483 l125 -145 -27 -23 c-15 -13 -56 -38 -92 -55
-84 -41 -180 -44 -248 -9 -96 51 -117 175 -45 271 25 33 140 114 154 109 4 -2
64 -68 133 -148z"/>
<path d="M3440 2199 l0 -420 53 3 52 3 0 318 c0 174 2 317 5 316 3 0 77 -108
164 -239 l159 -239 31 44 c17 24 91 133 164 242 l132 197 0 -322 0 -322 55 0
55 0 0 420 0 420 -48 0 -49 0 -163 -246 c-90 -135 -167 -247 -172 -250 -4 -3
-83 108 -174 246 l-166 250 -49 0 -49 0 0 -421z"/>
<path d="M5060 2200 l0 -420 55 0 55 0 0 149 0 149 94 81 c52 45 98 81 103 81
4 0 82 -103 173 -230 l165 -229 63 -1 c34 0 62 3 62 6 0 3 -86 125 -191 271
-186 257 -191 265 -173 282 11 10 80 71 154 136 74 65 142 124 150 131 12 12
4 14 -56 14 l-71 0 -234 -203 -234 -204 -3 204 -2 203 -55 0 -55 0 0 -420z"/>
<path d="M5944 2606 c-3 -8 -4 -156 -1 -328 4 -343 7 -361 64 -428 56 -65 121
-84 283 -84 163 0 227 19 284 85 57 67 61 98 61 449 l0 315 -52 3 -51 3 -4
-318 c-4 -372 -6 -380 -85 -416 -69 -31 -237 -31 -306 0 -80 37 -81 44 -85
416 l-3 317 -50 0 c-34 0 -51 -5 -55 -14z"/>
<path d="M6860 2200 l0 -420 50 0 50 0 2 183 3 182 160 0 159 0 104 -182 104
-183 54 0 c34 0 54 4 54 11 0 7 -44 89 -99 184 l-98 173 36 11 c158 47 213
266 97 387 -66 67 -102 74 -413 74 l-263 0 0 -420z m563 297 c15 -9 34 -29 44
-43 22 -34 21 -115 -2 -150 -31 -48 -66 -54 -295 -54 l-210 0 0 136 0 135 218
-3 c188 -3 222 -5 245 -21z"/>
</g>
</svg>
